<svg xmlns="http://www.w3.org/2000/svg" viewBox="0 0 171.37 32.63"><defs><style>.cls-1{fill:#e63a8a;fill-rule:evenodd;}</style></defs><g id="Camada_2" data-name="Camada 2"><g id="Camada_1-2" data-name="Camada 1"><path class="cls-1" d="M12.23,1.1a.66.66,0,0,0-.82-.35A16.33,16.33,0,0,0,3.87,26.86a.51.51,0,0,0,.71.05.45.45,0,0,0,.13-.17l8.1-17a.31.31,0,0,1,.4-.13.33.33,0,0,1,.13.13l1.77,3.75a1,1,0,0,1,0,.9L8,29.38a.87.87,0,0,0,.35,1.14A16.3,16.3,0,0,0,25.21,30a.73.73,0,0,0,.26-.93ZM16.46.53A.36.36,0,0,1,16.63,0a.35.35,0,0,1,.17,0l.61,0a16.32,16.32,0,0,1,12,26,.54.54,0,0,1-.75.1.55.55,0,0,1-.17-.2Z"/><path class="cls-1" d="M73.36,18.38c0,3-1.89,4.6-5.31,4.6s-5.31-1.63-5.31-4.6V8a.88.88,0,0,0-.88-.89H60.62a.88.88,0,0,0-.88.89V18.38c0,4.78,3.1,7.64,8.31,7.64s8.31-2.86,8.31-7.64V8a.88.88,0,0,0-.88-.89H74.24a.88.88,0,0,0-.88.89h0Z"/><path class="cls-1" d="M132.84,20.91a6.91,6.91,0,0,1-5,2.07,6.78,6.78,0,0,1-7-6.56,6.63,6.63,0,0,1,6.48-6.77h.46a7.11,7.11,0,0,1,4.57,1.6l.2.17a.71.71,0,0,0,1-.07h0l1-1.16a.75.75,0,0,0-.08-1c-.11-.1-.24-.22-.39-.34a10,10,0,0,0-6.29-2.2,9.7,9.7,0,0,0-9.92,9.48,7,7,0,0,0,0,.79A9.94,9.94,0,0,0,128.27,26a10.13,10.13,0,0,0,6.43-2.67l.25-.24A.88.88,0,0,0,135,22l-.89-1.22a.7.7,0,0,0-1-.15.41.41,0,0,0-.1.09l-.2.21"/><path class="cls-1" d="M166.83,14.63a38.17,38.17,0,0,0-3.94-.3l-.79-.05c-1.71-.17-2.54-.78-2.54-1.83,0-1.49,1.65-2.79,3.54-2.79a7.25,7.25,0,0,1,5,1.66l.34.26a.47.47,0,0,0,.65-.06l1.3-1.53a.46.46,0,0,0,0-.65A3.74,3.74,0,0,0,170,9a10,10,0,0,0-6.87-2.43c-4.24,0-6.86,3-6.86,5.86s1.86,4.45,5.38,4.8c.62.06,1.42.08,2.19.1a18.48,18.48,0,0,1,2.1.12c1.63.27,2.35,1,2.35,2.42,0,2-2.19,2.65-3.13,2.86a9.23,9.23,0,0,1-4.43-.25,7,7,0,0,1-2.59-1.83l-.26-.29a.41.41,0,0,0-.59,0h0l-1.5,1.41a.51.51,0,0,0-.05.7l.27.32a9.35,9.35,0,0,0,4.19,2.71,10.93,10.93,0,0,0,3.27.43,12.61,12.61,0,0,0,2.45-.21c3.44-.79,5.49-3,5.49-5.81,0-3.08-1.35-4.66-4.53-5.28"/><path class="cls-1" d="M88.89,7.14H80.34a.62.62,0,0,0-.62.62.53.53,0,0,0,0,.25l.66,1.52a1.11,1.11,0,0,0,1,.66h7.48c3.88,0,5.64,3.27,5.64,6.3,0,3.47-2.4,6.09-5.6,6.09H87.22a.61.61,0,0,0-.62.61V25a.62.62,0,0,0,.62.62H89a7.31,7.31,0,0,0,5.91-2.46,10.25,10.25,0,0,0,2.74-6.85,8.86,8.86,0,0,0-8.55-9.16h-.18"/><path class="cls-1" d="M82.08,12.45V24.89a.71.71,0,0,0,.72.71h1.55a.71.71,0,0,0,.71-.71h0V12.45a.71.71,0,0,0-.71-.71H82.8a.71.71,0,0,0-.72.71h0"/><path class="cls-1" d="M144.1,18h7.55a.45.45,0,0,0,.44-.45v0l-.22-2.06a.58.58,0,0,0-.58-.51H144a.56.56,0,0,0-.56.56h0v1.87a.64.64,0,0,0,.64.63h0"/><path class="cls-1" d="M141.92,22.08V10.76a.56.56,0,0,1,.57-.57h8.26a.49.49,0,0,0,.49-.49s0,0,0,0L151,7.7a.65.65,0,0,0-.63-.57h-10.8a.7.7,0,0,0-.7.7V24.9a.7.7,0,0,0,.7.7h12.75a.56.56,0,0,0,.57-.57V25l-.21-1.87a.6.6,0,0,0-.59-.53h-9.7a.49.49,0,0,1-.49-.49h0"/><path class="cls-1" d="M45.84,7.55,54.09,25a1,1,0,0,0,.88.56H56.9a.53.53,0,0,0,.53-.53.46.46,0,0,0,0-.23L49.12,7.33a.94.94,0,0,0-.85-.54h-2a.52.52,0,0,0-.52.53.48.48,0,0,0,.05.23"/><path class="cls-1" d="M39.6,25.6h2a.77.77,0,0,0,.69-.44l4.83-10.24a1.12,1.12,0,0,0,0-1L46,11.51a.35.35,0,0,0-.64,0L39.09,24.8a.55.55,0,0,0,.26.74.53.53,0,0,0,.24.06"/><path class="cls-1" d="M105.4,7.55,113.65,25a1,1,0,0,0,.89.56h1.93a.53.53,0,0,0,.53-.53.59.59,0,0,0,0-.23L108.68,7.33a.92.92,0,0,0-.84-.54h-2a.53.53,0,0,0-.53.53.64.64,0,0,0,.05.23"/><path class="cls-1" d="M99.16,25.6h2a.76.76,0,0,0,.69-.44l4.83-10.24a1.12,1.12,0,0,0,0-1l-1.13-2.4a.35.35,0,0,0-.64,0L98.65,24.8a.56.56,0,0,0,.27.74.46.46,0,0,0,.23.06"/></g></g></svg>